<svg width="21" height="25" viewBox="0 0 21 25" fill="none" xmlns="http://www.w3.org/2000/svg">
<path fill-rule="evenodd" clip-rule="evenodd" d="M15.1967 0.680664L15.3312 1.48832C15.6427 3.35926 15.1772 4.782 14.1987 5.80276C14.0546 5.95309 13.9011 6.09288 13.7398 6.22288C14.2285 6.07345 14.746 5.96558 15.2651 5.96558C17.1545 5.96558 18.9619 7.17989 19.8681 8.37323L20.2748 8.90877L19.7556 9.33611C18.9739 9.97944 18.283 10.6669 17.7924 11.3634C17.2993 12.0635 17.0434 12.7228 17.0434 13.3251C17.0434 14.3661 17.3266 15.001 17.7845 15.533C18.2309 16.0517 18.8451 16.4828 19.6683 17.0606C19.7703 17.1322 19.8755 17.206 19.984 17.2826L20.3497 17.5405L20.2687 17.9806C19.9759 19.5709 19.1796 21.2088 18.1687 22.4568C17.1833 23.6734 15.8574 24.6807 14.4559 24.6807C13.4916 24.6807 12.7033 24.3606 12.0844 24.0889C12.0156 24.0587 11.9502 24.0297 11.8874 24.0018C11.6539 23.8982 11.4565 23.8107 11.2608 23.7404C11.0201 23.6539 10.8361 23.615 10.6796 23.615C10.5183 23.615 10.3135 23.6559 10.0385 23.7465C9.8188 23.8188 9.59175 23.9094 9.33102 24.0134C9.26182 24.041 9.19025 24.0695 9.11581 24.0989C8.43883 24.3664 7.58781 24.6807 6.63353 24.6807C5.82131 24.6807 5.01285 24.177 4.31952 23.5317C3.59906 22.8612 2.88402 21.9275 2.25191 20.835C0.989294 18.6527 0 15.7358 0 12.7923C0 10.57 0.981551 8.85322 2.29562 7.70369C3.59277 6.56898 5.23699 5.96558 6.63353 5.96558C7.62271 5.96558 8.4964 6.37199 9.1685 6.70389C9.24384 6.74109 9.31601 6.77707 9.38555 6.81175C9.51035 6.87397 9.62671 6.93199 9.73791 6.98536L9.73787 6.98489C9.58706 5.02241 10.0376 3.67645 10.9932 2.72107C11.8983 1.8163 13.1791 1.35383 14.42 0.939808L15.1967 0.680664ZM11.1119 6.02555C11.958 5.75312 12.6799 5.3661 13.189 4.83493C13.6957 4.3064 14.0381 3.58711 14.0287 2.55776C13.1561 2.882 12.473 3.21944 11.9821 3.7102C11.503 4.18918 11.1539 4.87491 11.1119 6.02555ZM3.2165 8.75639C2.17037 9.67152 1.39864 11.0184 1.39864 12.7923C1.39864 15.4433 2.2975 18.1209 3.46252 20.1346C4.04422 21.14 4.67787 21.9546 5.27238 22.5079C5.89401 23.0864 6.3668 23.282 6.63353 23.282C7.29767 23.282 7.9302 23.0635 8.60191 22.7981C8.66418 22.7735 8.72764 22.7482 8.79189 22.7225C9.05729 22.6166 9.3363 22.5052 9.60111 22.418C9.93301 22.3087 10.3014 22.2164 10.6796 22.2164C11.0625 22.2164 11.418 22.3107 11.7336 22.4241C11.9822 22.5133 12.2399 22.6278 12.4788 22.734C12.5359 22.7593 12.5919 22.7842 12.6465 22.8082C13.2414 23.0693 13.8018 23.282 14.4559 23.282C15.2123 23.282 16.1792 22.6909 17.0819 21.5764C17.8653 20.6092 18.4972 19.3687 18.7991 18.1599C18.0258 17.6187 17.2788 17.0896 16.7244 16.4453C16.0358 15.6453 15.6447 14.6817 15.6447 13.3251C15.6447 12.3289 16.0631 11.3897 16.649 10.558C17.1061 9.909 17.6865 9.29475 18.3152 8.73002C17.5407 7.98644 16.3751 7.36422 15.2651 7.36422C14.6125 7.36422 13.8935 7.62319 13.091 7.95259C13.0138 7.98428 12.9354 8.01678 12.8562 8.04959C12.5459 8.17818 12.2243 8.31147 11.9198 8.41946C11.538 8.5549 11.1247 8.67286 10.7179 8.6952L10.6988 8.69625H10.6796C10.2745 8.69625 9.88795 8.57307 9.55367 8.4355C9.28561 8.32519 9.00308 8.18416 8.73754 8.05162C8.67363 8.01972 8.61071 7.98832 8.54921 7.95795C7.87263 7.62383 7.26277 7.36422 6.63353 7.36422C5.60243 7.36422 4.27956 7.82645 3.2165 8.75639Z" fill="#747983"/>
</svg>
