<svg width="21" height="21" viewBox="0 0 21 21" fill="none" xmlns="http://www.w3.org/2000/svg">
<path d="M17.9236 7.73121C17.9236 3.45096 14.4459 0 10.1656 0C5.88535 0 2.40764 3.47771 2.40764 7.73121C0.989809 8.26624 0 9.63057 0 11.2357V12.5732C0 14.6331 1.68535 16.3185 3.74522 16.3185H4.01274C4.89554 16.3185 5.61783 15.5962 5.61783 14.7134V9.09554C5.61783 8.4 5.16306 7.81147 4.54777 7.59745C4.62803 4.57452 7.11592 2.14013 10.1656 2.14013C13.2153 2.14013 15.7032 4.57452 15.7834 7.59745C15.1682 7.81147 14.7134 8.4 14.7134 9.09554V14.7134C14.7134 15.4624 15.2484 16.1045 15.9439 16.265C15.6497 16.6127 15.1949 16.8535 14.7134 16.8535H13.5898C13.1618 15.6764 12.0382 14.8471 10.7006 14.8471C9.01529 14.8471 7.6242 16.2382 7.6242 17.9236C7.6242 19.6089 9.01529 21 10.7006 21C12.0115 21 13.135 20.1707 13.5898 18.9936H14.7134C16.586 18.9936 18.1108 17.6293 18.4051 15.8369C19.5554 15.1949 20.3312 13.9643 20.3312 12.5732V11.2357C20.3312 9.63057 19.3414 8.26624 17.9236 7.73121ZM3.47771 14.1516C2.72866 14.0178 2.14013 13.3758 2.14013 12.5732V11.2357C2.14013 10.4331 2.72866 9.79108 3.47771 9.65733V14.1516ZM10.7006 18.8599C10.1656 18.8599 9.76433 18.4318 9.76433 17.9236C9.76433 17.4153 10.1924 16.9873 10.7006 16.9873C11.2089 16.9873 11.6369 17.4153 11.6369 17.9236C11.6369 18.4318 11.2089 18.8599 10.7006 18.8599ZM18.1911 12.5732C18.1911 13.3758 17.6025 14.0178 16.8535 14.1516V9.63057C17.6025 9.76433 18.1911 10.4064 18.1911 11.2089V12.5732Z" fill="#747983"/>
</svg>
