<svg width="18" height="19" viewBox="0 0 18 19" fill="none" xmlns="http://www.w3.org/2000/svg">
<path d="M3.62 8.79023C5.06 11.6202 7.38 13.9302 10.21 15.3802L12.41 13.1802C12.68 12.9102 13.08 12.8202 13.43 12.9402C14.55 13.3102 15.76 13.5102 17 13.5102C17.55 13.5102 18 13.9602 18 14.5102V18.0002C18 18.5502 17.55 19.0002 17 19.0002C7.61 19.0002 0 11.3902 0 2.00023C0 1.45023 0.45 1.00023 1 1.00023H4.5C5.05 1.00023 5.5 1.45023 5.5 2.00023C5.5 3.25023 5.7 4.45023 6.07 5.57023C6.18 5.92023 6.1 6.31023 5.82 6.59023L3.62 8.79023ZM17.16 1.69023L16.45 0.990234L10 7.29023V3.00023H9V9.00023H15V8.00023H10.85L17.16 1.69023Z" fill="white"/>
</svg>
