<svg width="19" height="20" viewBox="0 0 19 20" fill="none" xmlns="http://www.w3.org/2000/svg">
<path fill-rule="evenodd" clip-rule="evenodd" d="M2.27383 0.151152C2.62244 0.27237 3.00181 0.460391 3.39049 0.669676C4.91935 1.49225 14.9987 6.88845 16.9786 7.93655C17.4921 8.20845 17.9149 8.47935 18.2113 8.76766C18.5092 9.05748 18.7647 9.4521 18.722 9.94601C18.6819 10.4091 18.3924 10.7604 18.1147 11.0122C17.8256 11.2746 17.4387 11.5277 17.0039 11.7819C16.2687 12.2118 13.7345 13.606 11.0046 15.1076L9.59822 15.8815C6.34852 17.67 3.24354 19.3849 2.76075 19.6992C2.393 19.9386 1.9836 20.0523 1.56768 19.9769C1.16016 19.9033 0.846756 19.6664 0.625346 19.3997C0.197965 18.8848 0 18.1341 0 17.4716V2.26091C-2.61596e-06 1.72849 0.0539745 1.25835 0.208743 0.883648C0.377804 0.474622 0.682556 0.153328 1.13845 0.0413191C1.53522 -0.0562913 1.93928 0.0347895 2.27383 0.151152ZM1.41194 17.8831L9.04611 10.2032L1.38207 1.92421C1.37542 2.02199 1.37157 2.13366 1.37157 2.26091V17.4716C1.37157 17.6142 1.38632 17.7533 1.41194 17.8831ZM9.62633 10.8299L1.88833 18.6143C1.91837 18.6034 1.95974 18.5841 2.01245 18.5498C2.55148 18.1989 5.7317 16.4437 8.93692 14.6799L11.755 13.1293L9.62633 10.8299ZM10.2242 10.2285L13.043 7.39274C14.543 8.19405 15.7702 8.84869 16.3369 9.14872C16.8143 9.40154 17.0996 9.59961 17.2548 9.75063C17.2955 9.79031 17.3212 9.82061 17.3371 9.84187C17.3152 9.87285 17.2729 9.92408 17.1931 9.99641C17.0131 10.1598 16.7271 10.355 16.3116 10.598C15.7919 10.9017 14.3314 11.7102 12.527 12.7042L10.2242 10.2285ZM12.2572 6.97283L9.64255 9.60312L2.20231 1.60392C2.36196 1.67843 2.54057 1.76968 2.74055 1.87733C3.75918 2.42549 8.57023 5.00221 12.2572 6.97283ZM17.361 9.88155C17.361 9.88155 17.3598 9.87938 17.3586 9.87536C17.3607 9.87955 17.361 9.88155 17.361 9.88155Z" fill="#747983"/>
</svg>
