<svg width="16" height="16" viewBox="0 0 16 16" fill="none" xmlns="http://www.w3.org/2000/svg">
<path d="M11.5556 2.66667H13.3333V4.44444H11.5556V2.66667Z" fill="#747983"/>
<path fill-rule="evenodd" clip-rule="evenodd" d="M2.66667 0H13.3333C14.8089 0 16 1.19115 16 2.66667V13.3333C16 14.8089 14.8089 16 13.3333 16H2.66667C1.1911 16 0 14.8089 0 13.3333V2.66667C0 1.19115 1.1911 0 2.66667 0ZM13.3333 14.2222C13.8311 14.2222 14.2222 13.8311 14.2222 13.3333V7.11111H11.4311C11.52 7.39557 11.5556 7.69774 11.5556 8C11.5556 9.95556 9.95556 11.5556 8 11.5556C6.04444 11.5556 4.44444 9.95556 4.44444 8C4.44444 7.69774 4.49779 7.39557 4.56888 7.11111H1.77778V13.3333C1.77778 13.8311 2.16888 14.2222 2.66667 14.2222H13.3333ZM8 6.22222C7.02222 6.22222 6.22222 7.02222 6.22222 8C6.22222 8.97778 7.02222 9.77778 8 9.77778C8.97778 9.77778 9.77778 8.97778 9.77778 8C9.77778 7.02222 8.97778 6.22222 8 6.22222ZM10.3467 5.33333H14.2222V2.66667C14.2222 2.16892 13.8311 1.77778 13.3333 1.77778H2.66667C2.16888 1.77778 1.77778 2.16892 1.77778 2.66667V5.33333H5.65334C6.27556 4.78221 7.09334 4.44444 8 4.44444C8.90666 4.44444 9.72444 4.78221 10.3467 5.33333Z" fill="#747983"/>
</svg>
