<svg width="9" height="16" viewBox="0 0 9 16" fill="none" xmlns="http://www.w3.org/2000/svg">
<path d="M4.50065 8.09007C6.59759 8.09007 8.28126 6.27226 8.28126 4.04504C8.28126 1.81781 6.58228 0 4.50065 0C2.40371 0 0.720037 1.81781 0.720037 4.04504C0.720037 6.28864 2.40371 8.09007 4.50065 8.09007ZM4.50065 2.04708C5.52616 2.04708 6.36799 2.93142 6.36799 4.04504C6.36799 5.14227 5.54146 6.04299 4.50065 6.04299C3.45983 6.04299 2.6333 5.15865 2.6333 4.04504C2.6333 2.9478 3.47514 2.04708 4.50065 2.04708ZM8.86289 8.59775C8.64861 8.1392 8.05167 7.76254 7.27106 8.41761C6.21493 9.31832 4.50065 9.31832 4.50065 9.31832C4.50065 9.31832 2.78636 9.31832 1.73024 8.41761C0.949628 7.76254 0.35269 8.1392 0.138404 8.59775C-0.228943 9.40021 0.184322 9.79325 1.1333 10.4319C1.94453 10.9887 3.06187 11.2016 3.78126 11.2671L3.18432 11.9058C2.32718 12.8229 1.51595 13.6909 0.949628 14.2968C0.612894 14.6571 0.612894 15.2467 0.949628 15.607L1.05677 15.7216C1.39351 16.0819 1.94453 16.0819 2.28126 15.7216L4.51595 13.3306C5.35779 14.2477 6.16902 15.1157 6.73534 15.7216C7.07208 16.0819 7.6231 16.0819 7.95983 15.7216L8.06697 15.607C8.40371 15.2467 8.40371 14.6571 8.06697 14.2968L5.83228 11.9222L5.23534 11.2835C5.95473 11.2016 7.05677 10.9887 7.86799 10.4483C8.81697 9.77687 9.23024 9.38383 8.86289 8.59775Z" fill="#747983"/>
</svg>
