<svg width="15" height="12" viewBox="0 0 15 12" fill="none" xmlns="http://www.w3.org/2000/svg">
<path d="M15.0002 1.41176C14.4458 1.65241 13.8589 1.81283 13.2393 1.89305C13.8752 1.52406 14.3643 0.930481 14.5926 0.224599C14.0056 0.57754 13.3371 0.818182 12.6361 0.962567C12.0654 0.368984 11.2665 0 10.3861 0C8.69041 0 7.30454 1.36364 7.30454 3.03209C7.30454 3.27273 7.33715 3.49733 7.38606 3.72193C4.82628 3.59358 2.55997 2.39037 1.04367 0.561497C0.7828 1.0107 0.619756 1.52406 0.619756 2.08556C0.619756 3.12834 1.1578 4.05882 1.98932 4.60428C1.48389 4.58823 1.01106 4.45989 0.603452 4.21925C0.603452 4.23529 0.603452 4.25134 0.603452 4.25134C0.603452 5.71123 1.66323 6.94652 3.06541 7.21925C2.80454 7.28342 2.54367 7.33155 2.25019 7.33155C2.05454 7.33155 1.85889 7.31551 1.66323 7.28342C2.05454 8.48663 3.19584 9.36898 4.5328 9.38503C3.47302 10.2032 2.15236 10.6845 0.717582 10.6845C0.473017 10.6845 0.228452 10.6684 -0.0161133 10.6364C1.35345 11.5027 2.96758 12 4.69584 12C10.3535 12 13.4513 7.37968 13.4513 3.38503C13.4513 3.25668 13.4513 3.12834 13.435 3C14.0708 2.56684 14.5926 2.02139 15.0002 1.41176Z" fill="#747983"/>
</svg>
