<svg width="17" height="10" viewBox="0 0 17 10" fill="none" xmlns="http://www.w3.org/2000/svg">
<path fill-rule="evenodd" clip-rule="evenodd" d="M8.31727 9.98586H9.33356C9.33356 9.98586 9.64087 9.95197 9.79742 9.77687C9.94095 9.6172 9.93698 9.31633 9.93698 9.31633C9.93698 9.31633 9.91709 7.8933 10.5498 7.68581C11.1738 7.48172 11.9746 9.04709 12.8235 9.64846C13.4656 10.1033 13.9537 9.98586 13.9537 9.98586L16.2242 9.9885C16.2242 9.9885 17.4111 9.89624 16.8485 8.93035C16.8023 8.85278 16.5206 8.21752 15.1602 6.91424C13.7364 5.5507 13.9273 5.77099 15.6424 3.41145C16.6862 1.97373 17.1038 1.09709 16.9736 0.720909C16.8493 0.362797 16.0868 0.424554 16.0868 0.424554L13.5249 0.423801C13.5249 0.423801 13.3351 0.404596 13.1948 0.490452C13.0574 0.576685 12.9689 0.796974 12.9689 0.796974C12.9689 0.796974 12.5647 1.92892 12.0252 2.87447C10.8871 4.87063 10.4319 4.97644 10.2457 4.85218C9.81261 4.56298 9.92107 3.69161 9.92107 3.07292C9.92107 1.13965 10.2056 0.332672 9.36791 0.123303C9.09025 0.0540158 8.88525 0.00845175 8.17519 0.00129706C7.26302 -0.00849358 6.49077 0.00430957 6.05367 0.225728C5.76299 0.372965 5.53811 0.700198 5.67514 0.719026C5.84434 0.742373 6.22685 0.825216 6.42931 1.1099C6.69179 1.47855 6.68239 2.30511 6.68239 2.30511C6.68239 2.30511 6.83279 4.58105 6.33061 4.86385C5.98606 5.05816 5.51353 4.66239 4.49941 2.8515C3.97879 1.92478 3.58615 0.880195 3.58615 0.880195C3.58615 0.880195 3.51059 0.688524 3.37538 0.586476C3.2116 0.461833 2.98274 0.422671 2.98274 0.422671H0.553913C0.553913 0.422671 0.189118 0.433591 0.0549869 0.597019C-0.0643215 0.743126 0.0459484 1.04438 0.0459484 1.04438C0.0459484 1.04438 1.94729 5.67271 4.10063 7.98782C6.07572 10.1109 8.31727 9.98586 8.31727 9.98586Z" fill="#747983"/>
</svg>
